<mxfile host="app.diagrams.net" modified="2024-05-13T12:32:27.265Z" agent="Mozilla/5.0 (Windows NT 10.0; Win64; x64) AppleWebKit/537.36 (KHTML, like Gecko) Chrome/124.0.0.0 Safari/537.36" etag="oe12MKwswnTkDg_LsU3l" version="24.4.0" type="device">
  <diagram name="Page-1" id="xFu32hCcl2DCEVELUWvM">
    <mxGraphModel dx="2189" dy="1667" grid="1" gridSize="10" guides="1" tooltips="1" connect="1" arrows="1" fold="1" page="1" pageScale="1" pageWidth="850" pageHeight="1100" math="0" shadow="0">
      <root>
        <mxCell id="0" />
        <mxCell id="1" parent="0" />
        <mxCell id="KYUgdhLQtjPnYYOKLARj-1" value="Order Service&lt;div&gt;json delta comparator&lt;/div&gt;&lt;div&gt;&lt;br&gt;&lt;/div&gt;" style="rounded=1;whiteSpace=wrap;html=1;" parent="1" vertex="1">
          <mxGeometry x="140" y="180" width="120" height="60" as="geometry" />
        </mxCell>
        <mxCell id="KYUgdhLQtjPnYYOKLARj-2" value="Order Event&lt;div&gt;consumer/publisher&lt;/div&gt;" style="rounded=1;whiteSpace=wrap;html=1;" parent="1" vertex="1">
          <mxGeometry x="120" y="310" width="120" height="60" as="geometry" />
        </mxCell>
        <mxCell id="KYUgdhLQtjPnYYOKLARj-3" value="sync" style="shape=singleArrow;whiteSpace=wrap;html=1;arrowWidth=0.11805521647135417;arrowSize=0.5166223526000977;rounded=1;fillColor=default;gradientColor=default;" parent="1" vertex="1">
          <mxGeometry x="340" y="150" width="80" height="60" as="geometry" />
        </mxCell>
        <mxCell id="KYUgdhLQtjPnYYOKLARj-5" value="Payment/Downstream" style="whiteSpace=wrap;html=1;rounded=1;" parent="1" vertex="1">
          <mxGeometry x="500" y="160" width="120" height="60" as="geometry" />
        </mxCell>
        <mxCell id="KYUgdhLQtjPnYYOKLARj-8" value="events" style="shape=singleArrow;whiteSpace=wrap;html=1;arrowWidth=0.4;arrowSize=0.4;rounded=1;" parent="1" vertex="1">
          <mxGeometry x="310" y="300" width="80" height="60" as="geometry" />
        </mxCell>
        <mxCell id="KYUgdhLQtjPnYYOKLARj-12" value="Kafka" style="shape=tape;whiteSpace=wrap;html=1;" parent="1" vertex="1">
          <mxGeometry x="510" y="290" width="120" height="100" as="geometry" />
        </mxCell>
        <mxCell id="KYUgdhLQtjPnYYOKLARj-15" value="" style="shape=flexArrow;endArrow=classic;html=1;rounded=0;" parent="1" edge="1">
          <mxGeometry width="50" height="50" relative="1" as="geometry">
            <mxPoint x="190" y="50" as="sourcePoint" />
            <mxPoint x="190" y="150" as="targetPoint" />
          </mxGeometry>
        </mxCell>
        <mxCell id="KYUgdhLQtjPnYYOKLARj-17" value="protof - schema&lt;div&gt;topic - event - eventDetails&lt;/div&gt;&lt;div&gt;sendMessage topics&amp;nbsp;&lt;/div&gt;&lt;div&gt;router store(topics/ confi )&lt;/div&gt;" style="shape=note;whiteSpace=wrap;html=1;backgroundOutline=1;darkOpacity=0.05;" parent="1" vertex="1">
          <mxGeometry x="650" y="290" width="160" height="140" as="geometry" />
        </mxCell>
        <mxCell id="KYUgdhLQtjPnYYOKLARj-18" value="router -&amp;nbsp;&lt;div&gt;config&lt;/div&gt;" style="rounded=1;whiteSpace=wrap;html=1;" parent="1" vertex="1">
          <mxGeometry x="510" y="480" width="120" height="50" as="geometry" />
        </mxCell>
        <mxCell id="KYUgdhLQtjPnYYOKLARj-24" value="" style="rounded=1;whiteSpace=wrap;html=1;fillColor=none;" parent="1" vertex="1">
          <mxGeometry x="130" y="320" width="120" height="60" as="geometry" />
        </mxCell>
        <mxCell id="KYUgdhLQtjPnYYOKLARj-25" value="" style="rounded=1;whiteSpace=wrap;html=1;fillColor=none;" parent="1" vertex="1">
          <mxGeometry x="130" y="170" width="120" height="60" as="geometry" />
        </mxCell>
        <mxCell id="KYUgdhLQtjPnYYOKLARj-26" value="" style="shape=flexArrow;endArrow=classic;startArrow=classic;html=1;rounded=0;exitX=1;exitY=0.5;exitDx=0;exitDy=0;fillColor=none;strokeColor=default;shadow=0;" parent="1" edge="1">
          <mxGeometry width="100" height="100" relative="1" as="geometry">
            <mxPoint x="270" y="190" as="sourcePoint" />
            <mxPoint x="500" y="190" as="targetPoint" />
            <Array as="points">
              <mxPoint x="340" y="190" />
              <mxPoint x="360" y="190" />
            </Array>
          </mxGeometry>
        </mxCell>
        <mxCell id="KYUgdhLQtjPnYYOKLARj-29" value="RDBMS Oracle DB&amp;nbsp;" style="shape=cylinder3;whiteSpace=wrap;html=1;boundedLbl=1;backgroundOutline=1;size=15;" parent="1" vertex="1">
          <mxGeometry y="240" width="70" height="80" as="geometry" />
        </mxCell>
        <mxCell id="KYUgdhLQtjPnYYOKLARj-32" value="" style="shape=flexArrow;endArrow=classic;html=1;rounded=0;" parent="1" edge="1">
          <mxGeometry width="50" height="50" relative="1" as="geometry">
            <mxPoint x="120" y="220" as="sourcePoint" />
            <mxPoint x="70" y="280" as="targetPoint" />
          </mxGeometry>
        </mxCell>
        <mxCell id="KYUgdhLQtjPnYYOKLARj-33" value="" style="shape=flexArrow;endArrow=classic;startArrow=classic;html=1;rounded=0;width=7;startSize=5.29;" parent="1" target="KYUgdhLQtjPnYYOKLARj-25" edge="1">
          <mxGeometry width="100" height="100" relative="1" as="geometry">
            <mxPoint x="195" y="320" as="sourcePoint" />
            <mxPoint x="185" y="240" as="targetPoint" />
            <Array as="points">
              <mxPoint x="195" y="280" />
            </Array>
          </mxGeometry>
        </mxCell>
        <mxCell id="KYUgdhLQtjPnYYOKLARj-34" value="" style="shape=flexArrow;endArrow=classic;html=1;rounded=0;" parent="1" edge="1">
          <mxGeometry width="50" height="50" relative="1" as="geometry">
            <mxPoint x="115" y="330" as="sourcePoint" />
            <mxPoint x="65" y="310" as="targetPoint" />
          </mxGeometry>
        </mxCell>
        <mxCell id="KYUgdhLQtjPnYYOKLARj-35" value="" style="shape=cylinder3;whiteSpace=wrap;html=1;boundedLbl=1;backgroundOutline=1;size=15;fillColor=none;" parent="1" vertex="1">
          <mxGeometry x="-10" y="250" width="70" height="80" as="geometry" />
        </mxCell>
        <mxCell id="KYUgdhLQtjPnYYOKLARj-36" value="" style="shape=flexArrow;endArrow=classic;startArrow=classic;html=1;rounded=0;entryX=0.083;entryY=0.7;entryDx=0;entryDy=0;entryPerimeter=0;" parent="1" target="KYUgdhLQtjPnYYOKLARj-12" edge="1">
          <mxGeometry width="100" height="100" relative="1" as="geometry">
            <mxPoint x="250" y="360" as="sourcePoint" />
            <mxPoint x="350" y="260" as="targetPoint" />
          </mxGeometry>
        </mxCell>
        <mxCell id="KYUgdhLQtjPnYYOKLARj-40" value="" style="shape=flexArrow;endArrow=classic;startArrow=classic;html=1;rounded=0;" parent="1" edge="1">
          <mxGeometry width="100" height="100" relative="1" as="geometry">
            <mxPoint x="560" y="320" as="sourcePoint" />
            <mxPoint x="559.5" y="220" as="targetPoint" />
          </mxGeometry>
        </mxCell>
        <mxCell id="KYUgdhLQtjPnYYOKLARj-41" value="" style="shape=flexArrow;endArrow=classic;startArrow=classic;html=1;rounded=0;" parent="1" edge="1">
          <mxGeometry width="100" height="100" relative="1" as="geometry">
            <mxPoint x="571.17" y="480" as="sourcePoint" />
            <mxPoint x="568.8299999999999" y="380" as="targetPoint" />
          </mxGeometry>
        </mxCell>
        <mxCell id="KYUgdhLQtjPnYYOKLARj-44" value="" style="rounded=1;whiteSpace=wrap;html=1;fillColor=none;" parent="1" vertex="1">
          <mxGeometry x="510" y="170" width="120" height="60" as="geometry" />
        </mxCell>
        <mxCell id="KYUgdhLQtjPnYYOKLARj-45" value="" style="shape=tape;whiteSpace=wrap;html=1;fillColor=none;" parent="1" vertex="1">
          <mxGeometry x="520" y="300" width="120" height="100" as="geometry" />
        </mxCell>
        <mxCell id="vKfcOLvOulnRr6Iw82Jc-1" value="OIS" style="rounded=1;whiteSpace=wrap;html=1;" parent="1" vertex="1">
          <mxGeometry x="130" y="-20" width="120" height="60" as="geometry" />
        </mxCell>
        <mxCell id="vKfcOLvOulnRr6Iw82Jc-2" value="InterfaceA&lt;span style=&quot;white-space: pre;&quot;&gt;&#x9;&lt;/span&gt;" style="swimlane;whiteSpace=wrap;html=1;" parent="1" vertex="1">
          <mxGeometry x="470" y="620" width="200" height="200" as="geometry" />
        </mxCell>
        <mxCell id="vKfcOLvOulnRr6Iw82Jc-3" value="Interface B- Adapter In" style="swimlane;whiteSpace=wrap;html=1;" parent="1" vertex="1">
          <mxGeometry x="230" y="800" width="200" height="200" as="geometry" />
        </mxCell>
        <mxCell id="vKfcOLvOulnRr6Iw82Jc-4" value="Concrete Class implements InterfaceB" style="swimlane;whiteSpace=wrap;html=1;" parent="1" vertex="1">
          <mxGeometry x="-10" y="620" width="200" height="200" as="geometry" />
        </mxCell>
        <mxCell id="gdyhnk9zyS-6wHo6G5rQ-2" value="MicroService Arch Tavel Booking App&amp;nbsp;" style="whiteSpace=wrap;html=1;" vertex="1" parent="1">
          <mxGeometry x="50" y="1510" width="120" height="60" as="geometry" />
        </mxCell>
        <mxCell id="gdyhnk9zyS-6wHo6G5rQ-3" value="Func Req:&lt;div&gt;search flight -&amp;nbsp;&lt;br&gt;book flight - pay select seats -&amp;nbsp;&lt;div&gt;to/from - airports , date , -? passenger/&amp;nbsp;&amp;nbsp;&lt;/div&gt;&lt;div&gt;existing flights - ingestion admin/aggregator&lt;/div&gt;&lt;div&gt;ticket booked history - change journey&lt;/div&gt;&lt;div&gt;NFR -&amp;nbsp;&lt;br&gt;HA, C/ACID db, R No SPOF&lt;/div&gt;&lt;/div&gt;" style="shape=process;whiteSpace=wrap;html=1;backgroundOutline=1;" vertex="1" parent="1">
          <mxGeometry x="-120" y="1570" width="360" height="200" as="geometry" />
        </mxCell>
        <mxCell id="gdyhnk9zyS-6wHo6G5rQ-4" value="Actor" style="shape=umlActor;verticalLabelPosition=bottom;verticalAlign=top;html=1;outlineConnect=0;" vertex="1" parent="1">
          <mxGeometry x="-20" y="1880" width="30" height="60" as="geometry" />
        </mxCell>
        <mxCell id="gdyhnk9zyS-6wHo6G5rQ-6" value="" style="endArrow=classic;html=1;rounded=0;" edge="1" parent="1">
          <mxGeometry width="50" height="50" relative="1" as="geometry">
            <mxPoint x="30" y="1940" as="sourcePoint" />
            <mxPoint x="110" y="1940" as="targetPoint" />
          </mxGeometry>
        </mxCell>
        <mxCell id="gdyhnk9zyS-6wHo6G5rQ-40" value="" style="edgeStyle=orthogonalEdgeStyle;rounded=0;orthogonalLoop=1;jettySize=auto;html=1;entryX=0;entryY=0.5;entryDx=0;entryDy=0;" edge="1" parent="1" source="gdyhnk9zyS-6wHo6G5rQ-7" target="gdyhnk9zyS-6wHo6G5rQ-39">
          <mxGeometry relative="1" as="geometry" />
        </mxCell>
        <mxCell id="gdyhnk9zyS-6wHo6G5rQ-7" value="API Gateway /Load Balancer" style="rounded=1;whiteSpace=wrap;html=1;" vertex="1" parent="1">
          <mxGeometry x="110" y="1900" width="130" height="80" as="geometry" />
        </mxCell>
        <mxCell id="gdyhnk9zyS-6wHo6G5rQ-10" value="" style="edgeStyle=orthogonalEdgeStyle;rounded=0;orthogonalLoop=1;jettySize=auto;html=1;entryX=0.063;entryY=1.059;entryDx=0;entryDy=0;entryPerimeter=0;" edge="1" parent="1" source="gdyhnk9zyS-6wHo6G5rQ-8" target="gdyhnk9zyS-6wHo6G5rQ-7">
          <mxGeometry relative="1" as="geometry">
            <mxPoint x="80" y="2000" as="targetPoint" />
          </mxGeometry>
        </mxCell>
        <mxCell id="gdyhnk9zyS-6wHo6G5rQ-8" value="Actor" style="shape=umlActor;verticalLabelPosition=bottom;verticalAlign=top;html=1;outlineConnect=0;" vertex="1" parent="1">
          <mxGeometry x="-10" y="2010" width="40" height="60" as="geometry" />
        </mxCell>
        <mxCell id="gdyhnk9zyS-6wHo6G5rQ-11" value="" style="endArrow=classic;html=1;rounded=0;" edge="1" parent="1" target="gdyhnk9zyS-6wHo6G5rQ-12">
          <mxGeometry width="50" height="50" relative="1" as="geometry">
            <mxPoint x="240" y="1910" as="sourcePoint" />
            <mxPoint x="290" y="1860" as="targetPoint" />
          </mxGeometry>
        </mxCell>
        <mxCell id="gdyhnk9zyS-6wHo6G5rQ-12" value="" style="rounded=1;whiteSpace=wrap;html=1;" vertex="1" parent="1">
          <mxGeometry x="280" y="1770" width="120" height="60" as="geometry" />
        </mxCell>
        <mxCell id="gdyhnk9zyS-6wHo6G5rQ-13" value="User Service/Auth Service" style="rounded=1;whiteSpace=wrap;html=1;" vertex="1" parent="1">
          <mxGeometry x="290" y="1780" width="120" height="60" as="geometry" />
        </mxCell>
        <mxCell id="gdyhnk9zyS-6wHo6G5rQ-37" value="" style="edgeStyle=orthogonalEdgeStyle;rounded=0;orthogonalLoop=1;jettySize=auto;html=1;" edge="1" parent="1" source="gdyhnk9zyS-6wHo6G5rQ-14" target="gdyhnk9zyS-6wHo6G5rQ-13">
          <mxGeometry relative="1" as="geometry" />
        </mxCell>
        <mxCell id="gdyhnk9zyS-6wHo6G5rQ-14" value="Book Flight Service&lt;br&gt;Search Func&lt;div&gt;&amp;nbsp;&lt;/div&gt;" style="rounded=1;whiteSpace=wrap;html=1;" vertex="1" parent="1">
          <mxGeometry x="350" y="1890" width="120" height="60" as="geometry" />
        </mxCell>
        <mxCell id="gdyhnk9zyS-6wHo6G5rQ-15" value="" style="endArrow=classic;html=1;rounded=0;entryX=0;entryY=0.75;entryDx=0;entryDy=0;" edge="1" parent="1">
          <mxGeometry width="50" height="50" relative="1" as="geometry">
            <mxPoint x="240" y="1930" as="sourcePoint" />
            <mxPoint x="350" y="1935" as="targetPoint" />
          </mxGeometry>
        </mxCell>
        <mxCell id="gdyhnk9zyS-6wHo6G5rQ-19" value="" style="edgeStyle=orthogonalEdgeStyle;rounded=0;orthogonalLoop=1;jettySize=auto;html=1;" edge="1" parent="1" source="gdyhnk9zyS-6wHo6G5rQ-16" target="gdyhnk9zyS-6wHo6G5rQ-17">
          <mxGeometry relative="1" as="geometry" />
        </mxCell>
        <mxCell id="gdyhnk9zyS-6wHo6G5rQ-16" value="Inbound Flight Details Service&lt;div&gt;&lt;br&gt;&lt;/div&gt;" style="rounded=1;whiteSpace=wrap;html=1;" vertex="1" parent="1">
          <mxGeometry x="970" y="1920" width="120" height="60" as="geometry" />
        </mxCell>
        <mxCell id="gdyhnk9zyS-6wHo6G5rQ-23" value="" style="edgeStyle=orthogonalEdgeStyle;rounded=0;orthogonalLoop=1;jettySize=auto;html=1;" edge="1" parent="1" source="gdyhnk9zyS-6wHo6G5rQ-17" target="gdyhnk9zyS-6wHo6G5rQ-22">
          <mxGeometry relative="1" as="geometry" />
        </mxCell>
        <mxCell id="gdyhnk9zyS-6wHo6G5rQ-17" value="Flight Queue/Kafka Topics - Clusters" style="shape=tape;whiteSpace=wrap;html=1;" vertex="1" parent="1">
          <mxGeometry x="790" y="1920" width="120" height="100" as="geometry" />
        </mxCell>
        <mxCell id="gdyhnk9zyS-6wHo6G5rQ-20" value="" style="endArrow=classic;html=1;rounded=0;exitX=1;exitY=1;exitDx=0;exitDy=0;" edge="1" parent="1" source="gdyhnk9zyS-6wHo6G5rQ-14" target="gdyhnk9zyS-6wHo6G5rQ-21">
          <mxGeometry width="50" height="50" relative="1" as="geometry">
            <mxPoint x="430" y="1920" as="sourcePoint" />
            <mxPoint x="480" y="1870" as="targetPoint" />
          </mxGeometry>
        </mxCell>
        <mxCell id="gdyhnk9zyS-6wHo6G5rQ-21" value="NoSql/ElasticSearch/" style="shape=cylinder3;whiteSpace=wrap;html=1;boundedLbl=1;backgroundOutline=1;size=15;" vertex="1" parent="1">
          <mxGeometry x="635" y="2060" width="110" height="100" as="geometry" />
        </mxCell>
        <mxCell id="gdyhnk9zyS-6wHo6G5rQ-24" value="" style="edgeStyle=orthogonalEdgeStyle;rounded=0;orthogonalLoop=1;jettySize=auto;html=1;" edge="1" parent="1" source="gdyhnk9zyS-6wHo6G5rQ-22" target="gdyhnk9zyS-6wHo6G5rQ-21">
          <mxGeometry relative="1" as="geometry" />
        </mxCell>
        <mxCell id="gdyhnk9zyS-6wHo6G5rQ-22" value="Flight Onboarding Service" style="rounded=1;whiteSpace=wrap;html=1;" vertex="1" parent="1">
          <mxGeometry x="630" y="1940" width="120" height="60" as="geometry" />
        </mxCell>
        <mxCell id="gdyhnk9zyS-6wHo6G5rQ-28" value="User creds/details" style="shape=cylinder3;whiteSpace=wrap;html=1;boundedLbl=1;backgroundOutline=1;size=15;" vertex="1" parent="1">
          <mxGeometry x="220" y="1760" width="60" height="80" as="geometry" />
        </mxCell>
        <mxCell id="gdyhnk9zyS-6wHo6G5rQ-29" value="" style="endArrow=classic;html=1;rounded=0;entryX=0;entryY=0;entryDx=0;entryDy=0;" edge="1" parent="1" target="gdyhnk9zyS-6wHo6G5rQ-30">
          <mxGeometry width="50" height="50" relative="1" as="geometry">
            <mxPoint x="220" y="1980" as="sourcePoint" />
            <mxPoint x="320" y="2030" as="targetPoint" />
          </mxGeometry>
        </mxCell>
        <mxCell id="gdyhnk9zyS-6wHo6G5rQ-30" value="Recommendations" style="rounded=1;whiteSpace=wrap;html=1;" vertex="1" parent="1">
          <mxGeometry x="305" y="2100" width="120" height="60" as="geometry" />
        </mxCell>
        <mxCell id="gdyhnk9zyS-6wHo6G5rQ-34" value="Payment Service" style="ellipse;whiteSpace=wrap;html=1;rounded=1;" vertex="1" parent="1">
          <mxGeometry x="510" y="1780" width="80" height="80" as="geometry" />
        </mxCell>
        <mxCell id="gdyhnk9zyS-6wHo6G5rQ-42" value="" style="edgeStyle=orthogonalEdgeStyle;rounded=0;orthogonalLoop=1;jettySize=auto;html=1;entryX=0;entryY=0;entryDx=0;entryDy=67.5;entryPerimeter=0;" edge="1" parent="1" source="gdyhnk9zyS-6wHo6G5rQ-39" target="gdyhnk9zyS-6wHo6G5rQ-21">
          <mxGeometry relative="1" as="geometry">
            <mxPoint x="610" y="2100" as="targetPoint" />
          </mxGeometry>
        </mxCell>
        <mxCell id="gdyhnk9zyS-6wHo6G5rQ-39" value="Search Service" style="rounded=1;whiteSpace=wrap;html=1;" vertex="1" parent="1">
          <mxGeometry x="360" y="2010" width="120" height="60" as="geometry" />
        </mxCell>
        <mxCell id="gdyhnk9zyS-6wHo6G5rQ-43" value="" style="endArrow=classic;html=1;rounded=0;" edge="1" parent="1">
          <mxGeometry width="50" height="50" relative="1" as="geometry">
            <mxPoint x="470" y="1900" as="sourcePoint" />
            <mxPoint x="520" y="1850" as="targetPoint" />
          </mxGeometry>
        </mxCell>
        <mxCell id="gdyhnk9zyS-6wHo6G5rQ-46" value="In Mem Cache/ ELK - lucene" style="shape=trapezoid;perimeter=trapezoidPerimeter;whiteSpace=wrap;html=1;fixedSize=1;" vertex="1" parent="1">
          <mxGeometry x="460" y="2070" width="90" height="30" as="geometry" />
        </mxCell>
        <mxCell id="gdyhnk9zyS-6wHo6G5rQ-50" value="validation call" style="ellipse;whiteSpace=wrap;html=1;" vertex="1" parent="1">
          <mxGeometry x="480" y="1960" width="90" height="40" as="geometry" />
        </mxCell>
      </root>
    </mxGraphModel>
  </diagram>
</mxfile>
